<?xml version="1.0" encoding="UTF-8"?>
<svg xmlns="http://www.w3.org/2000/svg" viewBox="0 0 1201.74 822.89">
  <defs>
    <style>
      .cls-1 {
        stroke-width: 5.86px;
      }

      .cls-1, .cls-2, .cls-3, .cls-4, .cls-5, .cls-6, .cls-7, .cls-8, .cls-9, .cls-10, .cls-11, .cls-12, .cls-13, .cls-14, .cls-15 {
        stroke-miterlimit: 10;
      }

      .cls-1, .cls-2, .cls-8, .cls-9, .cls-11, .cls-12, .cls-15 {
        fill: none;
      }

      .cls-1, .cls-2, .cls-9, .cls-12 {
        stroke: #fff;
      }

      .cls-2 {
        stroke-width: 5.82px;
      }

      .cls-3 {
        fill: #c089ba;
        stroke: #c089ba;
      }

      .cls-3, .cls-4, .cls-5, .cls-6, .cls-7, .cls-15 {
        stroke-linecap: round;
      }

      .cls-3, .cls-4, .cls-10, .cls-13, .cls-14 {
        stroke-width: .83px;
      }

      .cls-4, .cls-16, .cls-6, .cls-14 {
        fill: #f8eb82;
      }

      .cls-4, .cls-6, .cls-7, .cls-13, .cls-14 {
        stroke: #f8eb82;
      }

      .cls-17, .cls-7, .cls-13 {
        fill: #f8e95f;
      }

      .cls-18, .cls-5, .cls-10 {
        fill: #f29d89;
      }

      .cls-19 {
        fill: #231815;
      }

      .cls-5, .cls-6, .cls-7 {
        stroke-width: 4.14px;
      }

      .cls-5, .cls-10 {
        stroke: #f29d89;
      }

      .cls-8, .cls-11, .cls-15 {
        stroke: #231815;
      }

      .cls-8, .cls-15 {
        stroke-width: 2.48px;
      }

      .cls-9 {
        stroke-width: 5.24px;
      }

      .cls-11 {
        stroke-width: 2.88px;
      }

      .cls-12 {
        stroke-width: 5.77px;
      }
    </style>
  </defs>
  <g id="_アイコン" data-name="アイコン">
    <g id="_色" data-name="色">
      <g id="_ひだり" data-name="ひだり">
        <g>
          <path class="cls-4" d="m454.17,503.74c-2.81,10.26-5.64,20.52-8.52,30.77"/>
          <path class="cls-4" d="m451.06,489.98c-4.8,17-9.75,33.95-14.47,50.97"/>
          <path class="cls-4" d="m446.52,480.49c-6.42,21.92-12.44,43.95-18.37,66.01"/>
          <path class="cls-4" d="m440.78,476.31c-5.4,18.9-9.88,38.04-15.02,57.01-1.48,5.47-3.02,10.93-4.64,16.36"/>
          <path class="cls-4" d="m435.7,471.27c-7.57,26.49-14.64,53.66-22.81,80.29"/>
          <path class="cls-4" d="m429.53,467.78c-7.65,28.07-14.44,56.33-22.7,84.4"/>
          <path class="cls-4" d="m423.38,464.37c-6.44,22.57-11.93,45.4-18.04,68.06-1.72,6.37-3.49,12.72-5.34,19.06"/>
          <path class="cls-4" d="m418.31,463.19c-7.57,29.68-16.53,58.48-24.36,88.13"/>
          <path class="cls-4" d="m411.72,462.39c-6.6,22.58-12.4,45.38-18.62,68.06-1.74,6.35-3.52,12.69-5.35,19.01"/>
          <path class="cls-4" d="m405.44,462.3c-7.61,27.45-16.84,55.16-23.66,83.27"/>
          <path class="cls-4" d="m397.78,463.9c-5.28,20.04-9.96,40.25-15.8,60.14-1.66,5.66-3.42,11.29-5.3,16.88"/>
          <path class="cls-4" d="m390.12,466.8c-4.84,17.95-9.39,35.98-14.57,53.84-1.46,5.03-2.96,10.04-4.54,15.03"/>
          <path class="cls-4" d="m382.59,470.78c-5.12,19.52-10.83,38.88-16.43,58.27"/>
          <path class="cls-4" d="m373.54,477.72c-3.63,12.34-7.06,24.74-9.88,37.29"/>
        </g>
        <g>
          <path class="cls-3" d="m393.8,428.33c2.94,9.4,5.85,18.81,8.73,28.23"/>
          <path class="cls-3" d="m384.5,419.15c4.75,15.64,9.36,31.33,14.18,46.95"/>
          <path class="cls-3" d="m376.22,414.03c5.95,20.29,12.26,40.47,18.66,60.61"/>
          <path class="cls-3" d="m369.66,413.64c5.23,17.42,11.3,34.58,16.77,51.93,1.58,5,3.11,10.02,4.55,15.07"/>
          <path class="cls-3" d="m363.19,412.25c7.33,24.42,15.4,49.12,22.33,73.96"/>
          <path class="cls-3" d="m356.64,412.61c8.06,25.7,16.89,51.11,24.47,77.11"/>
          <path class="cls-3" d="m350.14,413.03c6.25,20.81,13.38,41.34,19.93,62.05,1.84,5.82,3.64,11.66,5.36,17.52"/>
          <path class="cls-3" d="m345.6,414.64c8.93,26.91,16.33,53.83,25.04,80.84"/>
          <path class="cls-3" d="m340.06,417.31c6.14,20.89,13.01,41.56,19.49,62.34,1.81,5.82,3.6,11.64,5.33,17.49"/>
          <path class="cls-3" d="m335.13,420.37c7.78,25.19,14.43,51.4,23.16,76.71"/>
          <path class="cls-3" d="m329.96,425.45c5.9,18.26,12.34,36.34,17.72,54.76,1.53,5.24,2.98,10.5,4.3,15.8"/>
          <path class="cls-3" d="m325.43,431.53c5.19,16.41,10.66,32.73,15.54,49.23,1.38,4.64,2.7,9.3,3.97,13.98"/>
          <path class="cls-3" d="m321.56,438.4c5.76,17.77,10.99,35.71,16.3,53.62"/>
          <path class="cls-3" d="m317.97,448.32c3.34,11.43,6.86,22.8,10.92,33.99"/>
        </g>
        <rect class="cls-13" x="36.69" y="529.28" width="441.71" height="11.85" rx="5.93" ry="5.93" transform="translate(-130.71 85.73) rotate(-15.12)"/>
        <rect class="cls-10" x="22.42" y="577.18" width="378.15" height="15.08" rx="7.54" ry="7.54" transform="translate(-147.08 76.73) rotate(-15.33)"/>
        <rect class="cls-13" x="57.61" y="599.38" width="378.15" height="15.08" rx="7.54" ry="7.54" transform="translate(-151.7 86.83) rotate(-15.33)"/>
        <rect class="cls-17" x="33.91" y="325.78" width="378.15" height="15.08" rx="7.54" ry="7.54" transform="translate(-80.2 70.82) rotate(-15.33)"/>
        <rect class="cls-18" x="69.1" y="352.13" width="378.15" height="15.08" rx="7.54" ry="7.54" transform="translate(-85.91 81.07) rotate(-15.33)"/>
        <rect class="cls-10" x="40.12" y="480.63" width="378.15" height="36.02" rx="18.01" ry="18.01" transform="translate(-123.69 78.35) rotate(-15.33)"/>
        <rect class="cls-10" x="-7.03" y="455.65" width="441.71" height="11.85" rx="5.93" ry="5.93" transform="translate(-113.02 71.77) rotate(-15.12)"/>
        <rect class="cls-13" x="1.11" y="407.32" width="378.15" height="36.02" rx="18.01" ry="18.01" transform="translate(-105.69 65.42) rotate(-15.33)"/>
        <circle class="cls-10" cx="438.75" cy="400.54" r="5.57"/>
        <circle class="cls-10" cx="403.56" cy="532.12" r="5.57"/>
        <circle class="cls-13" cx="439.23" cy="441.35" r="2.55"/>
        <circle class="cls-13" cx="388.15" cy="372.64" r="7.33"/>
        <circle class="cls-17" cx="416.91" cy="280.43" r="5.57"/>
        <line class="cls-7" x1="204.97" y1="505.58" x2="430.85" y2="443.45"/>
        <line class="cls-5" x1="126.46" y1="443.4" x2="352.34" y2="381.27"/>
      </g>
      <g id="_みぎ" data-name="みぎ">
        <g>
          <path class="cls-4" d="m848.09,358.2c3.36,10.75,6.7,21.51,9.99,32.29"/>
          <path class="cls-4" d="m837.46,347.7c5.43,17.89,10.71,35.83,16.22,53.69"/>
          <path class="cls-4" d="m827.99,341.84c6.8,23.2,14.02,46.28,21.34,69.33"/>
          <path class="cls-4" d="m820.48,341.39c5.99,19.93,12.92,39.55,19.18,59.39,1.81,5.72,3.55,11.47,5.21,17.24"/>
          <path class="cls-4" d="m813.08,339.8c8.38,27.93,17.61,56.19,25.54,84.59"/>
          <path class="cls-4" d="m805.59,340.22c9.22,29.4,19.31,58.46,27.99,88.19"/>
          <path class="cls-4" d="m798.15,340.7c7.15,23.8,15.31,47.28,22.8,70.97,2.11,6.66,4.16,13.33,6.13,20.04"/>
          <path class="cls-4" d="m792.96,342.53c10.21,30.78,18.68,61.57,28.64,92.47"/>
          <path class="cls-4" d="m786.63,345.59c7.02,23.89,14.87,47.53,22.29,71.3,2.08,6.65,4.12,13.32,6.09,20"/>
          <path class="cls-4" d="m780.98,349.09c8.9,28.81,16.51,58.79,26.49,87.74"/>
          <path class="cls-4" d="m775.07,354.9c6.74,20.88,14.11,41.56,20.27,62.63,1.75,5.99,3.41,12.01,4.92,18.07"/>
          <path class="cls-4" d="m769.89,361.86c5.94,18.77,12.19,37.44,17.78,56.31,1.57,5.31,3.09,10.64,4.54,15.99"/>
          <path class="cls-4" d="m765.47,369.71c6.59,20.33,12.57,40.84,18.64,61.32"/>
          <path class="cls-4" d="m761.36,381.06c3.82,13.07,7.84,26.08,12.49,38.88"/>
        </g>
        <g>
          <path class="cls-3" d="m818.5,302.67c-2.93,9.41-5.88,18.8-8.86,28.19"/>
          <path class="cls-3" d="m816.06,289.84c-4.98,15.57-10.11,31.09-15.02,46.68"/>
          <path class="cls-3" d="m812.16,280.92c-6.64,20.07-12.92,40.26-19.11,60.47"/>
          <path class="cls-3" d="m806.99,276.87c-5.6,17.31-10.36,34.87-15.72,52.25-1.55,5.01-3.14,10.01-4.82,14.99"/>
          <path class="cls-3" d="m802.46,272.04c-7.85,24.26-15.26,49.17-23.67,73.54"/>
          <path class="cls-3" d="m796.86,268.62c-7.98,25.73-15.16,51.65-23.7,77.35"/>
          <path class="cls-3" d="m791.27,265.27c-6.68,20.67-12.49,41.62-18.87,62.38-1.79,5.84-3.63,11.66-5.55,17.46"/>
          <path class="cls-3" d="m786.62,264c-7.95,27.22-17.16,53.57-25.36,80.74"/>
          <path class="cls-3" d="m780.55,263.06c-6.83,20.68-12.92,41.58-19.4,62.37-1.81,5.82-3.66,11.63-5.56,17.42"/>
          <path class="cls-3" d="m774.75,262.77c-7.92,25.15-17.35,50.49-24.55,76.28"/>
          <path class="cls-3" d="m767.61,264.01c-5.53,18.37-10.51,36.91-16.55,55.12-1.72,5.18-3.52,10.33-5.44,15.44"/>
          <path class="cls-3" d="m760.43,266.44c-5.06,16.45-9.84,32.98-15.2,49.34-1.51,4.6-3.06,9.19-4.68,13.76"/>
          <path class="cls-3" d="m753.34,269.89c-5.37,17.89-11.26,35.62-17.07,53.38"/>
          <path class="cls-3" d="m744.75,276.02c-3.75,11.3-7.32,22.66-10.34,34.18"/>
        </g>
        <rect class="cls-14" x="767.05" y="215.74" width="441.71" height="11.85" rx="5.93" ry="5.93" transform="translate(-23.62 265.42) rotate(-15.12)"/>
        <rect class="cls-10" x="711.75" y="273.62" width="378.15" height="15.08" rx="7.54" ry="7.54" transform="translate(-42.28 248.19) rotate(-15.33)"/>
        <rect class="cls-14" x="744.56" y="303.38" width="378.15" height="15.08" rx="7.54" ry="7.54" transform="translate(-48.98 257.93) rotate(-15.33)"/>
        <rect class="cls-10" x="729.45" y="182.05" width="378.15" height="36.02" rx="18.01" ry="18.01" transform="translate(-20.21 249.99) rotate(-15.33)"/>
        <rect class="cls-10" x="732.58" y="383.55" width="441.71" height="11.85" rx="5.93" ry="5.93" transform="translate(-68.59 262.24) rotate(-15.12)"/>
        <rect class="cls-14" x="695.95" y="430.61" width="378.15" height="15.08" rx="7.54" ry="7.54" transform="translate(-84.36 249.6) rotate(-15.33)"/>
        <rect class="cls-10" x="731.14" y="459.44" width="378.15" height="15.08" rx="7.54" ry="7.54" transform="translate(-90.73 259.93) rotate(-15.33)"/>
        <rect class="cls-14" x="713.65" y="339.04" width="378.15" height="36.02" rx="18.01" ry="18.01" transform="translate(-62.28 251.4) rotate(-15.33)"/>
        <circle class="cls-14" cx="741.59" cy="364.14" r="5.57"/>
        <circle class="cls-10" cx="729.44" cy="520.04" r="5.4"/>
        <circle class="cls-10" cx="645.78" cy="433.99" r="2.7"/>
        <circle class="cls-14" cx="658.14" cy="273.69" r="2.7"/>
        <line class="cls-6" x1="721.41" y1="251.89" x2="947.3" y2="189.76"/>
        <line class="cls-5" x1="708.48" y1="412.05" x2="934.37" y2="349.92"/>
      </g>
    </g>
    <g>
      <circle class="cls-18" cx="744.47" cy="443.55" r="22.86"/>
      <g>
        <path class="cls-19" d="m747.93,469.2c-12.57,0-22.8-10.23-22.8-22.8s10.23-22.8,22.8-22.8,22.8,10.23,22.8,22.8-10.23,22.8-22.8,22.8Zm0-43.59c-11.46,0-20.79,9.33-20.79,20.79s9.33,20.79,20.79,20.79,20.79-9.33,20.79-20.79-9.33-20.79-20.79-20.79Z"/>
        <path class="cls-19" d="m755.68,447.95c-.49,3.54-3.53,6.28-7.2,6.28-4.01,0-7.28-3.26-7.28-7.28,0-2.51,1.28-4.71,3.21-6.02-.65-.35-1.3-.7-1.96-1.04-2,1.7-3.26,4.23-3.26,7.06,0,5.12,4.17,9.29,9.29,9.29,4.35,0,8-3.01,9-7.06-.6-.41-1.2-.82-1.8-1.23Z"/>
        <path class="cls-19" d="m748.48,432.48c7.98,0,14.47,6.49,14.47,14.47,0,.27,0,.54-.02.81.64.4,1.28.79,1.91,1.2.08-.66.13-1.33.13-2.01,0-9.09-7.39-16.48-16.48-16.48-1.85,0-3.63.31-5.3.88.58.54,1.17,1.06,1.77,1.57,1.13-.28,2.31-.44,3.53-.44Z"/>
        <path class="cls-19" d="m753.57,460.49c-1.59.6-3.3.93-5.1.93-7.98,0-14.47-6.49-14.47-14.47,0-1.98.4-3.88,1.13-5.6-.51-.48-1.04-.95-1.57-1.41-1,2.13-1.57,4.5-1.57,7.01,0,9.09,7.39,16.48,16.48,16.48,2.33,0,4.55-.49,6.56-1.37-.48-.53-.97-1.06-1.46-1.57Z"/>
      </g>
    </g>
    <g>
      <g>
        <rect class="cls-16" x="314.06" y="354.72" width="36.96" height="46.4" transform="translate(-87.85 101.01) rotate(-15.28)"/>
        <path class="cls-16" d="m325.96,397.48l-7.64-27.95c-.85-.06-1.71-.13-2.56-.2l8.5,31.11,24.36-6.66c-.32-.75-.63-1.5-.94-2.25l-21.73,5.94Z"/>
        <line class="cls-16" x1="335.29" y1="388.76" x2="342.29" y2="374.18"/>
        <line class="cls-16" x1="341.35" y1="390.63" x2="346.58" y2="379.42"/>
      </g>
      <g>
        <path class="cls-19" d="m362.42,398.82l-37.4,10.22-12.71-46.5,37.4-10.22,12.71,46.5Zm-36.13,7.99l33.9-9.26-11.75-43.01-33.9,9.26,11.75,43.01Z"/>
        <path class="cls-19" d="m330.79,400.24l-7.64-27.95c-.85-.06-1.71-.13-2.56-.2l8.5,31.11,24.36-6.66c-.32-.75-.63-1.5-.94-2.25l-21.73,5.94Z"/>
        <rect class="cls-19" x="335.54" y="383.32" width="16.17" height="1.81" transform="translate(-151.49 527.66) rotate(-64.35)"/>
        <rect class="cls-19" x="342.61" y="386.88" width="12.37" height="1.81" transform="translate(-150.04 540.09) rotate(-65.01)"/>
      </g>
    </g>
    <g>
      <polygon class="cls-16" points="839.63 363.74 805.69 346.94 785.31 378.86 796.09 375.86 801.97 396.96 834.72 387.84 828.85 366.75 839.63 363.74"/>
      <g>
        <path class="cls-19" d="m793.02,378.83l18.05-27.15,29.49,13.92-7.71,2.15c.37.47.6,1.06.82,1.63l12.01-3.34-35.23-16.63-21.57,32.44,21.3-5.93c-.26-.55-.54-1.09-.8-1.63l-16.35,4.55Z"/>
        <path class="cls-19" d="m833,367.95c.42.63.63,1.41.94,2.1,0,0-.09.03-.22.07l5.63,20.23-32.83,9.14-5.76-20.7,9.52-2.65c-.25-.55-.54-1.09-.8-1.63l-10.92,3.04,6.72,24.15,36.28-10.1-6.72-24.15-1.83.51Z"/>
        <path class="cls-19" d="m835.34,392.96l-10.94,3.05-4.36-15.68,10.94-3.05,4.36,15.68Zm-9.7.84l7.5-2.09-3.4-12.23-7.5,2.09,3.4,12.23Z"/>
      </g>
    </g>
    <g>
      <g>
        <rect class="cls-16" x="795.57" y="437.39" width="21.85" height="31.28" transform="translate(283.04 -309.63) rotate(26.21)"/>
        <polygon class="cls-16" points="791.3 483.88 809.31 472.29 789.5 462.54 791.3 483.88"/>
        <polygon class="cls-16" points="792.21 482.64 796.24 479.94 791.89 477.8 792.21 482.64"/>
      </g>
      <g>
        <path class="cls-19" d="m814.51,474.65l-21.14-10.41,14.57-29.6,21.14,10.41-14.57,29.6Zm-18.84-11.19l18.06,8.89,13.06-26.52-18.06-8.89-13.06,26.52Z"/>
        <path class="cls-19" d="m796.51,486.22l-1.32-.65-1.8-21.35,1.23-.84,19.81,9.75.09,1.49-18.01,11.59Zm-1.28-20.63l1.55,18.41,15.54-10-17.09-8.41Z"/>
        <g>
          <polygon class="cls-19" points="796.95 484.24 800.98 481.55 796.63 479.4 796.95 484.24"/>
          <path class="cls-19" d="m796.19,485.78l-.52-7.81,7.02,3.46-6.5,4.35Zm1.39-4.95l.12,1.87,1.56-1.04-1.68-.83Z"/>
        </g>
      </g>
    </g>
    <g>
      <g>
        <polygon class="cls-18" points="799.03 282.07 752.08 294.6 754.46 263.84 781.64 256.59 799.03 282.07"/>
        <path class="cls-18" d="m762.36,272.3s-9.06-24.74,1.4-27.53,15.65,22.99,15.65,22.99"/>
      </g>
      <g>
        <path class="cls-19" d="m805.08,284.56l-49.39,13.18,2.52-32.65,28.4-7.58,18.46,27.05Zm-47.41,10.8l44.5-11.88-16.32-23.92-25.95,6.93-2.23,28.87Z"/>
        <path class="cls-19" d="m766.13,274.55c-.26-.71-6.33-17.48-2.34-25.14.96-1.85,2.43-3.05,4.35-3.56s3.81-.21,5.6.9c7.43,4.61,11.01,22.04,11.16,22.78l-1.75.35c-.03-.17-3.57-17.41-10.35-21.61-1.37-.85-2.74-1.08-4.19-.69s-2.5,1.25-3.23,2.66c-3.62,6.97,2.38,23.54,2.44,23.7l-1.68.62Z"/>
      </g>
    </g>
    <g>
      <rect class="cls-17" x="319.93" y="527.92" width="41.18" height="28.69" transform="translate(-125.3 102.92) rotate(-14.55)"/>
      <path class="cls-17" d="m349.5,565.51l-2.54-9.78-5.67,1.47,2.54,9.8c-4.38,1.44-7.41,3.17-7.14,4.22.33,1.28,5.4,1.07,11.31-.47s10.44-3.82,10.11-5.09c-.28-1.08-3.93-1.09-8.62-.15Z"/>
    </g>
    <g>
      <path class="cls-19" d="m369.18,554.18l-41.41,10.75-7.61-29.32,41.41-10.75,7.61,29.32Zm-40.26,8.8l38.31-9.94-6.8-26.22-38.31,9.94,6.8,26.22Z"/>
      <path class="cls-19" d="m352.36,574.16c-1.18.31-11.51,2.89-12.29-.11-.52-1.99,3.84-3.87,6.95-4.94l-2.56-9.85,7.22-1.87,2.55,9.83c3.36-.62,8.28-1.16,8.81.88.78,3-9.51,5.76-10.68,6.07Zm-10.67-.52c.83.43,4.62.44,10.27-1.02s8.96-3.33,9.47-4.1c-.6-.29-2.99-.52-7.62.41l-.74.15-2.53-9.74-4.12,1.07,2.53,9.75-.71.23c-4.28,1.4-6.17,2.72-6.54,3.25Z"/>
    </g>
    <g>
      <g>
        <circle class="cls-18" cx="385.52" cy="431.89" r="6.8"/>
        <circle class="cls-18" cx="410.87" cy="426.75" r="6.8"/>
        <polyline class="cls-18" points="418.19 425.35 425.54 423.86 426.13 423.74 423.06 408.59 419.77 409.25 415.2 397.67 378.64 405.08 376.82 417.97 365.93 420.18 369 435.33 374.51 434.21 378.67 433.37"/>
        <line class="cls-18" x1="392.47" y1="430.57" x2="404.02" y2="428.23"/>
      </g>
      <g>
        <path class="cls-19" d="m390.46,441.35c-4.3.87-8.51-1.92-9.39-6.22s1.92-8.51,6.22-9.39,8.51,1.92,9.39,6.22-1.92,8.51-6.22,9.39Zm-2.7-13.33c-3.04.62-5.02,3.6-4.4,6.64s3.6,5.02,6.64,4.4,5.02-3.6,4.4-6.64-3.6-5.02-6.64-4.4Z"/>
        <path class="cls-19" d="m415.81,436.21c-4.3.87-8.51-1.92-9.39-6.22s1.92-8.51,6.22-9.39c4.3-.87,8.51,1.92,9.39,6.22s-1.92,8.51-6.22,9.39Zm-2.7-13.33c-3.04.62-5.02,3.6-4.4,6.64s3.6,5.02,6.64,4.4,5.02-3.6,4.4-6.64-3.6-5.02-6.64-4.4Z"/>
        <polygon class="cls-19" points="430.86 426.31 421.79 428.15 421.32 425.87 428.12 424.49 425.51 411.62 422.41 412.25 417.84 400.66 383.04 407.72 381.21 420.6 370.66 422.75 373.27 435.62 381.79 433.89 382.26 436.17 371.45 438.36 367.91 420.93 379.14 418.65 380.96 405.76 419.29 397.99 423.86 409.57 427.33 408.87 430.86 426.31"/>
        <rect class="cls-19" x="395.71" y="429.89" width="11.79" height="2.33" transform="translate(-77.69 88.46) rotate(-11.47)"/>
      </g>
    </g>
    <g id="_ふちどり" data-name="ふちどり">
      <g id="_ひだり-2" data-name="ひだり">
        <path class="cls-15" d="m470.09,479.07c3.15-.85,6.42,1.03,7.27,4.17h0c.85,3.15-1.03,6.42-4.17,7.27l-414.98,112.15"/>
        <rect class="cls-15" x="64.21" y="605.04" width="378.15" height="15.08" rx="7.54" ry="7.54" transform="translate(-152.96 88.77) rotate(-15.33)"/>
        <path class="cls-15" d="m405.64,283.51c2.91.39,5.46,2.48,6.29,5.48h0c1.1,4-1.28,8.17-5.28,9.27L56.5,394.26c-.69.19-1.39.28-2.08.27"/>
        <path class="cls-15" d="m443.58,310.78c1.68.96,3,2.55,3.54,4.55h0c1.1,4-1.28,8.17-5.28,9.27l-350.15,96c-.53.15-1.07.23-1.6.26"/>
        <rect class="cls-15" x="46.72" y="486.3" width="378.15" height="36.02" rx="18.01" ry="18.01" transform="translate(-124.95 80.29) rotate(-15.33)"/>
        <path class="cls-15" d="m369.68,369.61c4.48,2.2,8.04,6.23,9.45,11.39h0c2.62,9.55-3.05,19.51-12.61,22.13L36.57,493.6c-.45.12-.9.23-1.36.32"/>
        <circle class="cls-15" cx="394.75" cy="378.3" r="7.33"/>
      </g>
      <g id="_みぎ-2" data-name="みぎ">
        <path class="cls-15" d="m723.79,319.19c.39-2.91,2.48-5.46,5.48-6.29l350.15-96c4-1.1,8.17,1.28,9.27,5.28h0c1.1,4-1.28,8.17-5.28,9.27l-3.47.95"/>
        <rect class="cls-15" x="750.06" y="294.39" width="378.15" height="15.08" rx="7.54" ry="7.54" transform="translate(-46.41 259.06) rotate(-15.33)"/>
        <path class="cls-15" d="m741.84,231.07c1.75-5.71,6.3-10.45,12.45-12.13l329.95-90.46c9.55-2.62,19.51,3.05,22.13,12.61h0c1.84,6.71-.41,13.62-5.23,18.05"/>
        <line class="cls-15" x1="762.21" y1="427.58" x2="1161.46" y2="319.68"/>
        <rect class="cls-15" x="736.65" y="451.29" width="378.15" height="15.08" rx="7.54" ry="7.54" transform="translate(-88.37 261.1) rotate(-15.33)"/>
        <circle class="cls-15" cx="734.95" cy="511.06" r="5.4"/>
        <circle class="cls-8" cx="744.76" cy="354.89" r="6.46"/>
      </g>
    </g>
  </g>
  <g id="_ロゴ" data-name="ロゴ">
    <path class="cls-19" d="m671.73,504.96l-173.89,40.14v-283.16c28.27-6.53,56.54-13.05,84.8-19.58,29.69-6.86,59.39-13.71,89.08-20.57v283.16Z"/>
    <g>
      <path class="cls-11" d="m660.36,553.36h10.91"/>
      <path class="cls-11" d="m526.77,553.97h12.7"/>
      <g>
        <circle class="cls-11" cx="637.25" cy="559.47" r="6.5"/>
        <path class="cls-11" d="m616.32,553.36h7.06c1.72,0,3.11,1.39,3.11,3.11h0c0,1.72-1.39,3.11-3.11,3.11h-3.49c-1.72,0-3.11,1.39-3.11,3.11v.18c0,1.72,1.39,3.11,3.11,3.11,2.71,0,5.41-.01,8.12-.02"/>
        <path class="cls-11" d="m647.05,553.36h7.06c1.72,0,3.11,1.39,3.11,3.11h0c0,1.72-1.39,3.11-3.11,3.11h-3.49c-1.72,0-3.11,1.39-3.11,3.11v.18c0,1.72,1.39,3.11,3.11,3.11,2.71,0,5.41-.01,8.12-.02"/>
        <path class="cls-11" d="m660.36,565.89h7.58c1.84,0,3.33-1.49,3.33-3.33h0c0-1.84-1.49-3.33-3.33-3.33h-5.25"/>
        <path class="cls-11" d="m661.8,552.17v8.51"/>
        <path class="cls-11" d="m557.43,552.67v8.2c0,2.75,2.25,4.99,5.02,4.99h0c2.77,0,5.02-2.23,5.02-4.99v-8.24"/>
        <path class="cls-11" d="m533.12,552.69v14.75"/>
        <g>
          <path class="cls-11" d="m570.69,553.93h12.7"/>
          <path class="cls-11" d="m577.04,552.69v14.75"/>
        </g>
        <path class="cls-11" d="m498.31,565.64c4.02,0,4.57.01,8.59.02,1.36,0,2.47-1.23,2.48-2.77v-.06c.01-1.55-1.1-2.81-2.48-2.81-2.77,0-2,0-4.77,0-1.37,0-2.55-1.25-2.55-2.9s1.18-2.85,2.47-2.85c3.97,0,4.48,0,8.44,0"/>
        <path class="cls-11" d="m541.24,565.64c4.02,0,4.57.01,8.59.02,1.36,0,2.47-1.23,2.48-2.77v-.06c.01-1.55-1.1-2.81-2.48-2.81-2.77,0-2.13,0-4.89,0-1.37,0-2.42-1.25-2.42-2.9s1.18-2.85,2.47-2.85c3.97,0,4.48,0,8.44,0"/>
        <path class="cls-11" d="m600.51,567.54c0-3.85-.01-7.69-.02-11.54,0-1.3,1.18-2.37,2.65-2.38h.05c1.48,0,2.69,1.06,2.69,2.37,0,2.65,0,5.3,0,7.94,0,1.31,1.19,2.37,2.66,2.37.25,0,.5,0,.75,0,1.47,0,2.67-1.06,2.67-2.37,0-3.8,0-7.6,0-11.4"/>
        <g>
          <path class="cls-11" d="m586.55,560.1h10.21"/>
          <path class="cls-11" d="m596.63,553.83h-4.17c-3.73,0-6.76,2.75-6.76,6.13h0c0,3.39,3.03,6.13,6.76,6.13h4.29"/>
        </g>
        <rect class="cls-11" x="513.97" y="553.97" width="9.88" height="11.99" rx="3.34" ry="3.34"/>
      </g>
    </g>
    <path class="cls-12" d="m582.13,310.8v84.4"/>
    <path class="cls-12" d="m582.13,232.82v33.2"/>
    <path class="cls-1" d="m491.11,415.29l164.51-37.98c6.56-1.51,11.88,2.41,11.88,8.78h0c0,6.36-5.32,12.75-11.88,14.26l-164.51,37.98"/>
    <path class="cls-12" d="m525.02,492.74c.1,16.72.21,33.44.31,50.15"/>
    <path class="cls-12" d="m496,367.39c62.73-14.48,125.45-28.96,188.18-43.45"/>
    <path class="cls-12" d="m496,286.16c62.73-14.48,125.45-28.96,188.18-43.45"/>
    <path class="cls-12" d="m509.89,434.8v112.14"/>
    <path class="cls-2" d="m550.66,425.01v44.86"/>
    <path class="cls-12" d="m621.64,407.66v45.93"/>
    <path class="cls-12" d="m522.34,431.21l135.48-31.28c5.4-1.25,9.78,2.9,9.78,9.26h0c0,6.36-4.38,12.53-9.78,13.78l-135.48,31.28"/>
    <path class="cls-12" d="m511.83,456.7l144.85-33.44c5.78-1.33,10.46,3.1,10.46,9.9h0c0,6.8-4.68,13.4-10.46,14.73l-144.85,33.44"/>
    <path class="cls-9" d="m670.84,466.32l-130.32,29.98c-.67.15-1.21.57-1.26.97,0,0,0,0,0,0-.03.33,17.65,8.85,57.91,8.83,17.58,0,43.57-1.64,76.7-9.53"/>
    <path class="cls-12" d="m541.09,275.75c.31,6.9-2.1,36.41-8.09,48.07-10.66,20.76-21.17,23.24-30.15,25.45"/>
    <path class="cls-12" d="m571.22,330.1s-9.59,3.89-21.05,2.31c-11.46-1.57-17.17-8.6-17.17-8.6"/>
    <path class="cls-12" d="m634.74,255.59c.31,6.9-2.1,36.41-8.09,48.07-10.66,20.76-24.53,24.64-31.93,26.17"/>
    <path class="cls-12" d="m664.87,309.94s-9.59,3.89-21.05,2.31c-11.46-1.57-17.17-8.6-17.17-8.6"/>
  </g>
</svg>