<?xml version="1.0" encoding="UTF-8"?>
<svg xmlns="http://www.w3.org/2000/svg" viewBox="0 0 595.28 841.89">
  <defs>
    <style>
      .cls-1 {
        stroke-width: 5.86px;
      }

      .cls-1, .cls-2, .cls-3, .cls-4, .cls-5, .cls-6, .cls-7, .cls-8, .cls-9, .cls-10, .cls-11, .cls-12, .cls-13, .cls-14, .cls-15 {
        stroke-miterlimit: 10;
      }

      .cls-1, .cls-2, .cls-8, .cls-9, .cls-11, .cls-12, .cls-15 {
        fill: none;
      }

      .cls-1, .cls-2, .cls-9, .cls-12 {
        stroke: #fff;
      }

      .cls-2 {
        stroke-width: 5.82px;
      }

      .cls-3 {
        fill: #c089ba;
        stroke: #c089ba;
      }

      .cls-3, .cls-4, .cls-5, .cls-6, .cls-7, .cls-15 {
        stroke-linecap: round;
      }

      .cls-3, .cls-4, .cls-10, .cls-13, .cls-14 {
        stroke-width: .83px;
      }

      .cls-4, .cls-16, .cls-6, .cls-14 {
        fill: #f8eb82;
      }

      .cls-4, .cls-6, .cls-7, .cls-13, .cls-14 {
        stroke: #f8eb82;
      }

      .cls-17, .cls-7, .cls-13 {
        fill: #f8e95f;
      }

      .cls-18, .cls-5, .cls-10 {
        fill: #f29d89;
      }

      .cls-19 {
        fill: #231815;
      }

      .cls-5, .cls-6, .cls-7 {
        stroke-width: 4.14px;
      }

      .cls-5, .cls-10 {
        stroke: #f29d89;
      }

      .cls-8, .cls-11, .cls-15 {
        stroke: #231815;
      }

      .cls-8, .cls-15 {
        stroke-width: 2.48px;
      }

      .cls-9 {
        stroke-width: 5.24px;
      }

      .cls-11 {
        stroke-width: 2.88px;
      }

      .cls-12 {
        stroke-width: 5.77px;
      }
    </style>
  </defs>
  <g id="_アイコン" data-name="アイコン">
    <g id="_色" data-name="色">
      <g id="_ひだり" data-name="ひだり">
        <g>
          <path class="cls-4" d="m167.24,520.82c-2.81,10.26-5.64,20.52-8.52,30.77"/>
          <path class="cls-4" d="m164.14,507.05c-4.8,17-9.75,33.95-14.47,50.97"/>
          <path class="cls-4" d="m159.59,497.57c-6.42,21.92-12.44,43.95-18.37,66.01"/>
          <path class="cls-4" d="m153.85,493.38c-5.4,18.9-9.88,38.04-15.02,57.01-1.48,5.47-3.02,10.93-4.64,16.36"/>
          <path class="cls-4" d="m148.78,488.34c-7.57,26.49-14.64,53.66-22.81,80.29"/>
          <path class="cls-4" d="m142.61,484.85c-7.65,28.07-14.44,56.33-22.7,84.4"/>
          <path class="cls-4" d="m136.45,481.45c-6.44,22.57-11.93,45.4-18.04,68.06-1.72,6.37-3.49,12.72-5.34,19.06"/>
          <path class="cls-4" d="m131.38,480.26c-7.57,29.68-16.53,58.48-24.36,88.13"/>
          <path class="cls-4" d="m124.79,479.46c-6.6,22.58-12.4,45.38-18.62,68.06-1.74,6.35-3.52,12.69-5.35,19.01"/>
          <path class="cls-4" d="m118.52,479.37c-7.61,27.45-16.84,55.16-23.66,83.27"/>
          <path class="cls-4" d="m110.85,480.97c-5.28,20.04-9.96,40.25-15.8,60.14-1.66,5.66-3.42,11.29-5.3,16.88"/>
          <path class="cls-4" d="m103.19,483.87c-4.84,17.95-9.39,35.98-14.57,53.84-1.46,5.03-2.96,10.04-4.54,15.03"/>
          <path class="cls-4" d="m95.67,487.86c-5.12,19.52-10.83,38.88-16.43,58.27"/>
          <path class="cls-4" d="m86.62,494.79c-3.63,12.34-7.06,24.74-9.88,37.29"/>
        </g>
        <g>
          <path class="cls-3" d="m106.88,445.4c2.94,9.4,5.85,18.81,8.73,28.23"/>
          <path class="cls-3" d="m97.58,436.23c4.75,15.64,9.36,31.33,14.18,46.95"/>
          <path class="cls-3" d="m89.3,431.11c5.95,20.29,12.26,40.47,18.66,60.61"/>
          <path class="cls-3" d="m82.74,430.71c5.23,17.42,11.3,34.58,16.77,51.93,1.58,5,3.11,10.02,4.55,15.07"/>
          <path class="cls-3" d="m76.27,429.32c7.33,24.42,15.4,49.12,22.33,73.96"/>
          <path class="cls-3" d="m69.71,429.68c8.06,25.7,16.89,51.11,24.47,77.11"/>
          <path class="cls-3" d="m63.21,430.1c6.25,20.81,13.38,41.34,19.93,62.05,1.84,5.82,3.64,11.66,5.36,17.52"/>
          <path class="cls-3" d="m58.67,431.71c8.93,26.91,16.33,53.83,25.04,80.84"/>
          <path class="cls-3" d="m53.14,434.38c6.14,20.89,13.01,41.56,19.49,62.34,1.81,5.82,3.6,11.64,5.33,17.49"/>
          <path class="cls-3" d="m48.2,437.44c7.78,25.19,14.43,51.4,23.16,76.71"/>
          <path class="cls-3" d="m43.03,442.52c5.9,18.26,12.34,36.34,17.72,54.76,1.53,5.24,2.98,10.5,4.3,15.8"/>
          <path class="cls-3" d="m38.51,448.61c5.19,16.41,10.66,32.73,15.54,49.23,1.38,4.64,2.7,9.3,3.97,13.98"/>
          <path class="cls-3" d="m34.64,455.47c5.76,17.77,10.99,35.71,16.3,53.62"/>
          <path class="cls-3" d="m31.05,465.4c3.34,11.43,6.86,22.8,10.92,33.99"/>
        </g>
        <rect class="cls-13" x="-250.23" y="546.36" width="441.71" height="11.85" rx="5.93" ry="5.93" transform="translate(-145.11 11.46) rotate(-15.12)"/>
        <rect class="cls-10" x="-264.51" y="594.25" width="378.15" height="15.08" rx="7.54" ry="7.54" transform="translate(-161.8 1.47) rotate(-15.33)"/>
        <rect class="cls-13" x="-229.31" y="616.45" width="378.15" height="15.08" rx="7.54" ry="7.54" transform="translate(-166.42 11.57) rotate(-15.33)"/>
        <rect class="cls-17" x="-253.02" y="342.85" width="378.15" height="15.08" rx="7.54" ry="7.54" transform="translate(-94.92 -4.44) rotate(-15.33)"/>
        <rect class="cls-18" x="-217.82" y="369.2" width="378.15" height="15.08" rx="7.54" ry="7.54" transform="translate(-100.64 5.81) rotate(-15.33)"/>
        <rect class="cls-10" x="-246.81" y="497.71" width="378.15" height="36.02" rx="18.01" ry="18.01" transform="translate(-138.42 3.09) rotate(-15.33)"/>
        <rect class="cls-10" x="-293.96" y="472.73" width="441.71" height="11.85" rx="5.93" ry="5.93" transform="translate(-127.41 -2.49) rotate(-15.12)"/>
        <rect class="cls-13" x="-285.82" y="424.4" width="378.15" height="36.02" rx="18.01" ry="18.01" transform="translate(-120.42 -9.83) rotate(-15.33)"/>
        <circle class="cls-10" cx="151.83" cy="417.61" r="5.57"/>
        <circle class="cls-10" cx="116.64" cy="549.19" r="5.57"/>
        <circle class="cls-13" cx="152.31" cy="458.42" r="2.55"/>
        <circle class="cls-13" cx="101.23" cy="389.71" r="7.33"/>
        <circle class="cls-17" cx="129.99" cy="297.5" r="5.57"/>
        <line class="cls-7" x1="-81.96" y1="522.65" x2="143.93" y2="460.52"/>
        <line class="cls-5" x1="-160.47" y1="460.47" x2="65.42" y2="398.35"/>
      </g>
      <g id="_みぎ" data-name="みぎ">
        <g>
          <path class="cls-4" d="m561.17,375.27c3.36,10.75,6.7,21.51,9.99,32.29"/>
          <path class="cls-4" d="m550.53,364.77c5.43,17.89,10.71,35.83,16.22,53.69"/>
          <path class="cls-4" d="m541.06,358.92c6.8,23.2,14.02,46.28,21.34,69.33"/>
          <path class="cls-4" d="m533.56,358.47c5.99,19.93,12.92,39.55,19.18,59.39,1.81,5.72,3.55,11.47,5.21,17.24"/>
          <path class="cls-4" d="m526.16,356.87c8.38,27.93,17.61,56.19,25.54,84.59"/>
          <path class="cls-4" d="m518.66,357.29c9.22,29.4,19.31,58.46,27.99,88.19"/>
          <path class="cls-4" d="m511.23,357.77c7.15,23.8,15.31,47.28,22.8,70.97,2.11,6.66,4.16,13.33,6.13,20.04"/>
          <path class="cls-4" d="m506.03,359.61c10.21,30.78,18.68,61.57,28.64,92.47"/>
          <path class="cls-4" d="m499.7,362.66c7.02,23.89,14.87,47.53,22.29,71.3,2.08,6.65,4.12,13.32,6.09,20"/>
          <path class="cls-4" d="m494.06,366.16c8.9,28.81,16.51,58.79,26.49,87.74"/>
          <path class="cls-4" d="m488.14,371.97c6.74,20.88,14.11,41.56,20.27,62.63,1.75,5.99,3.41,12.01,4.92,18.07"/>
          <path class="cls-4" d="m482.97,378.93c5.94,18.77,12.19,37.44,17.78,56.31,1.57,5.31,3.09,10.64,4.54,15.99"/>
          <path class="cls-4" d="m478.54,386.78c6.59,20.33,12.57,40.84,18.64,61.32"/>
          <path class="cls-4" d="m474.44,398.14c3.82,13.07,7.84,26.08,12.49,38.88"/>
        </g>
        <g>
          <path class="cls-3" d="m531.57,319.74c-2.93,9.41-5.88,18.8-8.86,28.19"/>
          <path class="cls-3" d="m529.14,306.91c-4.98,15.57-10.11,31.09-15.02,46.68"/>
          <path class="cls-3" d="m525.24,297.99c-6.64,20.07-12.92,40.26-19.11,60.47"/>
          <path class="cls-3" d="m520.06,293.94c-5.6,17.31-10.36,34.87-15.72,52.25-1.55,5.01-3.14,10.01-4.82,14.99"/>
          <path class="cls-3" d="m515.53,289.11c-7.85,24.26-15.26,49.17-23.67,73.54"/>
          <path class="cls-3" d="m509.93,285.69c-7.98,25.73-15.16,51.65-23.7,77.35"/>
          <path class="cls-3" d="m504.35,282.34c-6.68,20.67-12.49,41.62-18.87,62.38-1.79,5.84-3.63,11.66-5.55,17.46"/>
          <path class="cls-3" d="m499.7,281.08c-7.95,27.22-17.16,53.57-25.36,80.74"/>
          <path class="cls-3" d="m493.63,280.13c-6.83,20.68-12.92,41.58-19.4,62.37-1.81,5.82-3.66,11.63-5.56,17.42"/>
          <path class="cls-3" d="m487.82,279.84c-7.92,25.15-17.35,50.49-24.55,76.28"/>
          <path class="cls-3" d="m480.68,281.08c-5.53,18.37-10.51,36.91-16.55,55.12-1.72,5.18-3.52,10.33-5.44,15.44"/>
          <path class="cls-3" d="m473.5,283.52c-5.06,16.45-9.84,32.98-15.2,49.34-1.51,4.6-3.06,9.19-4.68,13.76"/>
          <path class="cls-3" d="m466.42,286.96c-5.37,17.89-11.26,35.62-17.07,53.38"/>
          <path class="cls-3" d="m457.82,293.09c-3.75,11.3-7.32,22.66-10.34,34.18"/>
        </g>
        <rect class="cls-14" x="480.13" y="232.81" width="441.71" height="11.85" rx="5.93" ry="5.93" transform="translate(-38.01 191.15) rotate(-15.12)"/>
        <rect class="cls-10" x="424.83" y="290.69" width="378.15" height="15.08" rx="7.54" ry="7.54" transform="translate(-57.01 172.94) rotate(-15.33)"/>
        <rect class="cls-14" x="457.63" y="320.45" width="378.15" height="15.08" rx="7.54" ry="7.54" transform="translate(-63.71 182.67) rotate(-15.33)"/>
        <rect class="cls-10" x="442.53" y="199.12" width="378.15" height="36.02" rx="18.01" ry="18.01" transform="translate(-34.93 174.73) rotate(-15.33)"/>
        <rect class="cls-10" x="445.65" y="400.62" width="441.71" height="11.85" rx="5.93" ry="5.93" transform="translate(-82.98 187.97) rotate(-15.12)"/>
        <rect class="cls-14" x="409.02" y="447.69" width="378.15" height="15.08" rx="7.54" ry="7.54" transform="translate(-99.08 174.34) rotate(-15.33)"/>
        <rect class="cls-10" x="444.21" y="476.52" width="378.15" height="15.08" rx="7.54" ry="7.54" transform="translate(-105.45 184.68) rotate(-15.33)"/>
        <rect class="cls-14" x="426.72" y="356.11" width="378.15" height="36.02" rx="18.01" ry="18.01" transform="translate(-77.01 176.14) rotate(-15.33)"/>
        <circle class="cls-14" cx="454.66" cy="381.22" r="5.57"/>
        <circle class="cls-10" cx="442.51" cy="537.11" r="5.4"/>
        <circle class="cls-10" cx="358.86" cy="451.06" r="2.7"/>
        <circle class="cls-14" cx="371.22" cy="290.76" r="2.7"/>
        <line class="cls-6" x1="434.49" y1="268.96" x2="660.37" y2="206.84"/>
        <line class="cls-5" x1="421.56" y1="429.12" x2="647.44" y2="367"/>
      </g>
    </g>
    <g>
      <circle class="cls-18" cx="457.55" cy="460.62" r="22.86"/>
      <g>
        <path class="cls-19" d="m461.01,486.28c-12.57,0-22.8-10.23-22.8-22.8s10.23-22.8,22.8-22.8,22.8,10.23,22.8,22.8-10.23,22.8-22.8,22.8Zm0-43.59c-11.46,0-20.79,9.33-20.79,20.79s9.33,20.79,20.79,20.79,20.79-9.33,20.79-20.79-9.33-20.79-20.79-20.79Z"/>
        <path class="cls-19" d="m468.75,465.02c-.49,3.54-3.53,6.28-7.2,6.28-4.01,0-7.28-3.26-7.28-7.28,0-2.51,1.28-4.71,3.21-6.02-.65-.35-1.3-.7-1.96-1.04-2,1.7-3.26,4.23-3.26,7.06,0,5.12,4.17,9.29,9.29,9.29,4.35,0,8-3.01,9-7.06-.6-.41-1.2-.82-1.8-1.23Z"/>
        <path class="cls-19" d="m461.55,449.55c7.98,0,14.47,6.49,14.47,14.47,0,.27,0,.54-.02.81.64.4,1.28.79,1.91,1.2.08-.66.13-1.33.13-2.01,0-9.09-7.39-16.48-16.48-16.48-1.85,0-3.63.31-5.3.88.58.54,1.17,1.06,1.77,1.57,1.13-.28,2.31-.44,3.53-.44Z"/>
        <path class="cls-19" d="m466.65,477.56c-1.59.6-3.3.93-5.1.93-7.98,0-14.47-6.49-14.47-14.47,0-1.98.4-3.88,1.13-5.6-.51-.48-1.04-.95-1.57-1.41-1,2.13-1.57,4.5-1.57,7.01,0,9.09,7.39,16.48,16.48,16.48,2.33,0,4.55-.49,6.56-1.37-.48-.53-.97-1.06-1.46-1.57Z"/>
      </g>
    </g>
    <g>
      <g>
        <rect class="cls-16" x="27.13" y="371.79" width="36.96" height="46.4" transform="translate(-102.5 25.99) rotate(-15.28)"/>
        <path class="cls-16" d="m39.03,414.56l-7.64-27.95c-.85-.06-1.71-.13-2.56-.2l8.5,31.11,24.36-6.66c-.32-.75-.63-1.5-.94-2.25l-21.73,5.94Z"/>
        <line class="cls-16" x1="48.37" y1="405.83" x2="55.37" y2="391.26"/>
        <line class="cls-16" x1="54.43" y1="407.71" x2="59.66" y2="396.5"/>
      </g>
      <g>
        <path class="cls-19" d="m75.5,415.89l-37.4,10.22-12.71-46.5,37.4-10.22,12.71,46.5Zm-36.13,7.99l33.9-9.26-11.75-43.01-33.9,9.26,11.75,43.01Z"/>
        <path class="cls-19" d="m43.86,417.31l-7.64-27.95c-.85-.06-1.71-.13-2.56-.2l8.5,31.11,24.36-6.66c-.32-.75-.63-1.5-.94-2.25l-21.73,5.94Z"/>
        <rect class="cls-19" x="48.61" y="400.39" width="16.17" height="1.81" transform="translate(-329.6 278.69) rotate(-64.35)"/>
        <rect class="cls-19" x="55.69" y="403.95" width="12.37" height="1.81" transform="translate(-331.22 289.89) rotate(-65.01)"/>
      </g>
    </g>
    <g>
      <polygon class="cls-16" points="552.71 380.82 518.77 364.01 498.39 395.94 509.17 392.94 515.04 414.03 547.8 404.91 541.93 383.82 552.71 380.82"/>
      <g>
        <path class="cls-19" d="m506.1,395.91l18.05-27.15,29.49,13.92-7.71,2.15c.37.47.6,1.06.82,1.63l12.01-3.34-35.23-16.63-21.57,32.44,21.3-5.93c-.26-.55-.54-1.09-.8-1.63l-16.35,4.55Z"/>
        <path class="cls-19" d="m546.07,385.02c.42.63.63,1.41.94,2.1,0,0-.09.03-.22.07l5.63,20.23-32.83,9.14-5.76-20.7,9.52-2.65c-.25-.55-.54-1.09-.8-1.63l-10.92,3.04,6.72,24.15,36.28-10.1-6.72-24.15-1.83.51Z"/>
        <path class="cls-19" d="m548.41,410.03l-10.94,3.05-4.36-15.68,10.94-3.05,4.36,15.68Zm-9.7.84l7.5-2.09-3.4-12.23-7.5,2.09,3.4,12.23Z"/>
      </g>
    </g>
    <g>
      <g>
        <rect class="cls-16" x="508.64" y="454.47" width="21.85" height="31.28" transform="translate(261.07 -181.14) rotate(26.21)"/>
        <polygon class="cls-16" points="504.37 500.96 522.39 489.36 502.58 479.61 504.37 500.96"/>
        <polygon class="cls-16" points="505.28 499.71 509.31 497.01 504.96 494.87 505.28 499.71"/>
      </g>
      <g>
        <path class="cls-19" d="m527.59,491.72l-21.14-10.41,14.57-29.6,21.14,10.41-14.57,29.6Zm-18.84-11.19l18.06,8.89,13.06-26.52-18.06-8.89-13.06,26.52Z"/>
        <path class="cls-19" d="m509.58,503.29l-1.32-.65-1.8-21.35,1.23-.84,19.81,9.75.09,1.49-18.01,11.59Zm-1.28-20.63l1.55,18.41,15.54-10-17.09-8.41Z"/>
        <g>
          <polygon class="cls-19" points="510.03 501.32 514.06 498.62 509.71 496.48 510.03 501.32"/>
          <path class="cls-19" d="m509.27,502.86l-.52-7.81,7.02,3.46-6.5,4.35Zm1.39-4.95l.12,1.87,1.56-1.04-1.68-.83Z"/>
        </g>
      </g>
    </g>
    <g>
      <g>
        <polygon class="cls-18" points="512.1 299.14 465.16 311.68 467.53 280.92 494.71 273.66 512.1 299.14"/>
        <path class="cls-18" d="m475.44,289.37s-9.06-24.74,1.4-27.53,15.65,22.99,15.65,22.99"/>
      </g>
      <g>
        <path class="cls-19" d="m518.16,301.63l-49.39,13.18,2.52-32.65,28.4-7.58,18.46,27.05Zm-47.41,10.8l44.5-11.88-16.32-23.92-25.95,6.93-2.23,28.87Z"/>
        <path class="cls-19" d="m479.2,291.63c-.26-.71-6.33-17.48-2.34-25.14.96-1.85,2.43-3.05,4.35-3.56s3.81-.21,5.6.9c7.43,4.61,11.01,22.04,11.16,22.78l-1.75.35c-.03-.17-3.57-17.41-10.35-21.61-1.37-.85-2.74-1.08-4.19-.69s-2.5,1.25-3.23,2.66c-3.62,6.97,2.38,23.54,2.44,23.7l-1.68.62Z"/>
      </g>
    </g>
    <g>
      <rect class="cls-17" x="33" y="545" width="41.18" height="28.69" transform="translate(-138.78 31.4) rotate(-14.55)"/>
      <path class="cls-17" d="m62.58,582.59l-2.54-9.78-5.67,1.47,2.54,9.8c-4.38,1.44-7.41,3.17-7.14,4.22.33,1.28,5.4,1.07,11.31-.47s10.44-3.82,10.11-5.09c-.28-1.08-3.93-1.09-8.62-.15Z"/>
    </g>
    <g>
      <path class="cls-19" d="m82.25,571.25l-41.41,10.75-7.61-29.32,41.41-10.75,7.61,29.32Zm-40.26,8.8l38.31-9.94-6.8-26.22-38.31,9.94,6.8,26.22Z"/>
      <path class="cls-19" d="m65.43,591.24c-1.18.31-11.51,2.89-12.29-.11-.52-1.99,3.84-3.87,6.95-4.94l-2.56-9.85,7.22-1.87,2.55,9.83c3.36-.62,8.28-1.16,8.81.88.78,3-9.51,5.76-10.68,6.07Zm-10.67-.52c.83.43,4.62.44,10.27-1.02s8.96-3.33,9.47-4.1c-.6-.29-2.99-.52-7.62.41l-.74.15-2.53-9.74-4.12,1.07,2.53,9.75-.71.23c-4.28,1.4-6.17,2.72-6.54,3.25Z"/>
    </g>
    <g>
      <g>
        <circle class="cls-18" cx="98.6" cy="448.96" r="6.8"/>
        <circle class="cls-18" cx="123.94" cy="443.82" r="6.8"/>
        <polyline class="cls-18" points="131.27 442.42 138.61 440.93 139.21 440.81 136.13 425.66 132.85 426.32 128.28 414.74 91.72 422.16 89.89 435.04 79 437.25 82.07 452.4 87.59 451.28 91.74 450.44"/>
        <line class="cls-18" x1="105.55" y1="447.64" x2="117.1" y2="445.3"/>
      </g>
      <g>
        <path class="cls-19" d="m103.54,458.42c-4.3.87-8.51-1.92-9.39-6.22s1.92-8.51,6.22-9.39,8.51,1.92,9.39,6.22-1.92,8.51-6.22,9.39Zm-2.7-13.33c-3.04.62-5.02,3.6-4.4,6.64s3.6,5.02,6.64,4.4,5.02-3.6,4.4-6.64-3.6-5.02-6.64-4.4Z"/>
        <path class="cls-19" d="m128.88,453.28c-4.3.87-8.51-1.92-9.39-6.22s1.92-8.51,6.22-9.39c4.3-.87,8.51,1.92,9.39,6.22s-1.92,8.51-6.22,9.39Zm-2.7-13.33c-3.04.62-5.02,3.6-4.4,6.64s3.6,5.02,6.64,4.4,5.02-3.6,4.4-6.64-3.6-5.02-6.64-4.4Z"/>
        <polygon class="cls-19" points="143.94 443.38 134.86 445.22 134.4 442.94 141.19 441.56 138.58 428.69 135.48 429.32 130.91 417.73 96.11 424.79 94.29 437.68 83.73 439.82 86.34 452.69 94.87 450.96 95.33 453.24 84.52 455.43 80.99 438 92.21 435.72 94.04 422.84 132.36 415.06 136.93 426.65 140.4 425.94 143.94 443.38"/>
        <rect class="cls-19" x="108.79" y="446.96" width="11.79" height="2.33" transform="translate(-86.81 31.75) rotate(-11.47)"/>
      </g>
    </g>
    <g id="_ふちどり" data-name="ふちどり">
      <g id="_ひだり-2" data-name="ひだり">
        <path class="cls-15" d="m183.16,496.15c3.15-.85,6.42,1.03,7.27,4.17h0c.85,3.15-1.03,6.42-4.17,7.27l-414.98,112.15"/>
        <rect class="cls-15" x="-222.72" y="622.11" width="378.15" height="15.08" rx="7.54" ry="7.54" transform="translate(-167.68 13.51) rotate(-15.33)"/>
        <path class="cls-15" d="m118.72,300.58c2.91.39,5.46,2.48,6.29,5.48h0c1.1,4-1.28,8.17-5.28,9.27l-350.15,96c-.69.19-1.39.28-2.08.27"/>
        <path class="cls-15" d="m156.65,327.86c1.68.96,3,2.55,3.54,4.55h0c1.1,4-1.28,8.17-5.28,9.27l-350.15,96c-.53.15-1.07.23-1.6.26"/>
        <rect class="cls-15" x="-240.21" y="503.37" width="378.15" height="36.02" rx="18.01" ry="18.01" transform="translate(-139.68 5.04) rotate(-15.33)"/>
        <path class="cls-15" d="m82.75,386.68c4.48,2.2,8.04,6.23,9.45,11.39h0c2.62,9.55-3.05,19.51-12.61,22.13l-329.95,90.46c-.45.12-.9.23-1.36.32"/>
        <circle class="cls-15" cx="107.83" cy="395.37" r="7.33"/>
      </g>
      <g id="_みぎ-2" data-name="みぎ">
        <path class="cls-15" d="m436.86,336.27c.39-2.91,2.48-5.46,5.48-6.29l350.15-96c4-1.1,8.17,1.28,9.27,5.28h0c1.1,4-1.28,8.17-5.28,9.27l-3.47.95"/>
        <rect class="cls-15" x="463.14" y="311.47" width="378.15" height="15.08" rx="7.54" ry="7.54" transform="translate(-61.14 183.81) rotate(-15.33)"/>
        <path class="cls-15" d="m454.92,248.15c1.75-5.71,6.3-10.45,12.45-12.13l329.95-90.46c9.55-2.62,19.51,3.05,22.13,12.61h0c1.84,6.71-.41,13.62-5.23,18.05"/>
        <line class="cls-15" x1="475.28" y1="444.66" x2="874.53" y2="336.76"/>
        <rect class="cls-15" x="449.72" y="468.36" width="378.15" height="15.08" rx="7.54" ry="7.54" transform="translate(-103.1 185.84) rotate(-15.33)"/>
        <circle class="cls-15" cx="448.02" cy="528.13" r="5.4"/>
        <circle class="cls-8" cx="457.84" cy="371.96" r="6.46"/>
      </g>
    </g>
  </g>
  <g id="_ロゴ" data-name="ロゴ">
    <path class="cls-19" d="m384.81,522.04l-173.89,40.14v-283.16c28.27-6.53,56.54-13.05,84.8-19.58,29.69-6.86,59.39-13.71,89.08-20.57v283.16Z"/>
    <g>
      <path class="cls-11" d="m373.44,570.44h10.91"/>
      <path class="cls-11" d="m239.85,571.04h12.7"/>
      <g>
        <circle class="cls-11" cx="350.32" cy="576.54" r="6.5"/>
        <path class="cls-11" d="m329.4,570.44h7.06c1.72,0,3.11,1.39,3.11,3.11h0c0,1.72-1.39,3.11-3.11,3.11h-3.49c-1.72,0-3.11,1.39-3.11,3.11v.18c0,1.72,1.39,3.11,3.11,3.11,2.71,0,5.41-.01,8.12-.02"/>
        <path class="cls-11" d="m360.12,570.44h7.06c1.72,0,3.11,1.39,3.11,3.11h0c0,1.72-1.39,3.11-3.11,3.11h-3.49c-1.72,0-3.11,1.39-3.11,3.11v.18c0,1.72,1.39,3.11,3.11,3.11,2.71,0,5.41-.01,8.12-.02"/>
        <path class="cls-11" d="m373.44,582.96h7.58c1.84,0,3.33-1.49,3.33-3.33h0c0-1.84-1.49-3.33-3.33-3.33h-5.25"/>
        <path class="cls-11" d="m374.88,569.24v8.51"/>
        <path class="cls-11" d="m270.51,569.75v8.2c0,2.75,2.25,4.99,5.02,4.99h0c2.77,0,5.02-2.23,5.02-4.99v-8.24"/>
        <path class="cls-11" d="m246.2,569.76v14.75"/>
        <g>
          <path class="cls-11" d="m283.76,571.01h12.7"/>
          <path class="cls-11" d="m290.11,569.76v14.75"/>
        </g>
        <path class="cls-11" d="m211.39,582.71c4.02,0,4.57.01,8.59.02,1.36,0,2.47-1.23,2.48-2.77v-.06c.01-1.55-1.1-2.81-2.48-2.81-2.77,0-2,0-4.77,0-1.37,0-2.55-1.25-2.55-2.9s1.18-2.85,2.47-2.85c3.97,0,4.48,0,8.44,0"/>
        <path class="cls-11" d="m254.31,582.71c4.02,0,4.57.01,8.59.02,1.36,0,2.47-1.23,2.48-2.77v-.06c.01-1.55-1.1-2.81-2.48-2.81-2.77,0-2.13,0-4.89,0-1.37,0-2.42-1.25-2.42-2.9s1.18-2.85,2.47-2.85c3.97,0,4.48,0,8.44,0"/>
        <path class="cls-11" d="m313.58,584.61c0-3.85-.01-7.69-.02-11.54,0-1.3,1.18-2.37,2.65-2.38h.05c1.48,0,2.69,1.06,2.69,2.37,0,2.65,0,5.3,0,7.94,0,1.31,1.19,2.37,2.66,2.37.25,0,.5,0,.75,0,1.47,0,2.67-1.06,2.67-2.37,0-3.8,0-7.6,0-11.4"/>
        <g>
          <path class="cls-11" d="m299.63,577.17h10.21"/>
          <path class="cls-11" d="m309.7,570.91h-4.17c-3.73,0-6.76,2.75-6.76,6.13h0c0,3.39,3.03,6.13,6.76,6.13h4.29"/>
        </g>
        <rect class="cls-11" x="227.05" y="571.04" width="9.88" height="11.99" rx="3.34" ry="3.34"/>
      </g>
    </g>
    <path class="cls-12" d="m295.2,327.87v84.4"/>
    <path class="cls-12" d="m295.2,249.9v33.2"/>
    <path class="cls-1" d="m204.19,432.36l164.51-37.98c6.56-1.51,11.88,2.41,11.88,8.78h0c0,6.36-5.32,12.75-11.88,14.26l-164.51,37.98"/>
    <path class="cls-12" d="m238.1,509.82c.1,16.72.21,33.44.31,50.15"/>
    <path class="cls-12" d="m209.07,384.46c62.73-14.48,125.45-28.96,188.18-43.45"/>
    <path class="cls-12" d="m209.07,303.23c62.73-14.48,125.45-28.96,188.18-43.45"/>
    <path class="cls-12" d="m222.96,451.87v112.14"/>
    <path class="cls-2" d="m263.74,442.08v44.86"/>
    <path class="cls-12" d="m334.72,424.73v45.93"/>
    <path class="cls-12" d="m235.41,448.28l135.48-31.28c5.4-1.25,9.78,2.9,9.78,9.26h0c0,6.36-4.38,12.53-9.78,13.78l-135.48,31.28"/>
    <path class="cls-12" d="m224.9,473.78l144.85-33.44c5.78-1.33,10.46,3.1,10.46,9.9h0c0,6.8-4.68,13.4-10.46,14.73l-144.85,33.44"/>
    <path class="cls-9" d="m383.92,483.39l-130.32,29.98c-.67.15-1.21.57-1.26.97,0,0,0,0,0,0-.03.33,17.65,8.85,57.91,8.83,17.58,0,43.57-1.64,76.7-9.53"/>
    <path class="cls-12" d="m254.17,292.82c.31,6.9-2.1,36.41-8.09,48.07-10.66,20.76-21.17,23.24-30.15,25.45"/>
    <path class="cls-12" d="m284.3,347.17s-9.59,3.89-21.05,2.31c-11.46-1.57-17.17-8.6-17.17-8.6"/>
    <path class="cls-12" d="m347.82,272.66c.31,6.9-2.1,36.41-8.09,48.07-10.66,20.76-24.53,24.64-31.93,26.17"/>
    <path class="cls-12" d="m377.95,327.02s-9.59,3.89-21.05,2.31c-11.46-1.57-17.17-8.6-17.17-8.6"/>
  </g>
</svg>